<?xml version="1.0" encoding="UTF-8" standalone="no"?>
<!DOCTYPE svg PUBLIC "-//W3C//DTD SVG 1.1//EN" "http://www.w3.org/Graphics/SVG/1.1/DTD/svg11.dtd">
<!-- 由 Microsoft Visio, SVG Export 生成 EMA_PSA.svg 页-1 -->
<svg xmlns="http://www.w3.org/2000/svg" xmlns:xlink="http://www.w3.org/1999/xlink" xmlns:ev="http://www.w3.org/2001/xml-events"
		width="3.1546in" height="2.09049in" viewBox="0 0 227.131 150.515" xml:space="preserve" color-interpolation-filters="sRGB"
		class="st6">
	<style type="text/css">
	<![CDATA[
		.st1 {fill:#000000;stroke:#000000;stroke-linecap:round;stroke-linejoin:round;stroke-width:0.5}
		.st2 {fill:#00a86b;stroke:#00a86b;stroke-linecap:round;stroke-linejoin:round;stroke-width:1.25}
		.st3 {fill:none;stroke:none;stroke-linecap:round;stroke-linejoin:round;stroke-width:0.75}
		.st4 {fill:none;stroke-linecap:round;stroke-linejoin:round}
		.st5 {stroke:#ffffff;stroke-width:62}
		.st6 {fill:none;fill-rule:evenodd;font-size:12px;overflow:visible;stroke-linecap:square;stroke-miterlimit:3}
	]]>
	</style>

	<g>
		<title>页-1</title>
		<g id="shape5738-1" transform="translate(0,-3.3967)">
			<title>工作表.5738</title>
			<path d="M226.15 148.81 L199.72 103.03 L173.46 57.56 L173.46 57.56 A1.13386 1.13386 -180 0 0 171.5 57.56 L158.4 80.24
						 L145.38 102.8 L145.38 102.8 A1.13386 1.13386 0 0 1 143.26 102.24 L143.26 79.6 L143.26 57.09 L143.26 57.09
						 A1.13386 1.13386 -180 0 0 141.83 56 L135.77 57.62 L129.72 59.24 L129.72 59.24 A1.13386 1.13386 0 0 1 128.62
						 58.95 L119.79 50.12 L110.9 41.22 L110.9 41.22 A1.13386 1.13386 -180 0 0 109.29 41.22 L55.82 94.7 L1.94 148.58
						 L1.94 148.58 A1.13386 1.13386 -180 0 0 2.74 150.52 L114.41 150.52 L225.17 150.52 L225.17 150.52 A1.13386
						 1.13386 -180 0 0 226.15 148.81 Z" class="st1"/>
		</g>
		<g id="shape5782-3" transform="translate(132.203,-61.9969)">
			<title>工作表.5782</title>
			<path d="M45.01 62.62 L29.27 62.62 L13.65 62.62 L13.65 62.62 a0.566929 0.566929 -180 0 0 -0.547611 0.420197 L6.65 87.11
						 L0.25 111 L0.25 111 a0.566929 0.566929 -180 0 0 0.694344 0.694344 L7.5 109.94 L14.08 108.17 L14.08 108.17
						 a0.566929 0.566929 0 0 1 0.713661 0.547611 L14.8 128.63 L14.8 148.4 L14.8 148.4 a0.566929 0.566929 -180
						 0 0 1.0579 0.283465 L32.74 119.43 L49.78 89.92 L49.78 89.92 a0.566929 0.566929 -180 0 0 -0.490975 -0.850394
						 L40.47 89.07 L31.7 89.07 L31.7 89.07 a0.566929 0.566929 0 0 1 -0.490975 -0.850394 L38.33 75.89 L45.5 63.47
						 L45.5 63.47 a0.566929 0.566929 -180 0 0 -0.490975 -0.850394 Z" class="st2"/>
		</g>
		<g id="group5836-5" transform="translate(8.61226,-3.3967)">
			<title>工作表.5836</title>
			<g id="shape5829-6" transform="translate(-0.398096,0.396707)">
				<title>工作表.5829</title>
				<rect x="0" y="121.575" width="26.3635" height="28.9397" class="st3"/>
				<g class="st4" transform="matrix(0.0283465,0,0,0.0283465,-3860.87,902.547)">
					<path class="st5" d="M136234 -26579 L136234 -26578 L136234 -26578 L136237 -26581 L136243 -26589 L136254 -26605
								 L136274 -26631 L136304 -26671 L136346 -26725 L136401 -26804 L136468 -26900 L136547 -27010 L136632
								 -27122 L136717 -27227 L136792 -27315 L136857 -27385 L136906 -27436 L136942 -27473 L136966 -27497
								 L136980 -27512 L136988 -27518 L136992 -27520 L136995 -27518 L136996 -27515 L136998 -27505 L137003
								 -27486 L137008 -27459 L137014 -27425 L137022 -27384 L137030 -27340 L137038 -27291 L137046 -27239
								 L137053 -27178 L137059 -27108 L137065 -27028 L137072 -26943 L137078 -26860 L137085 -26778 L137091
								 -26708 L137096 -26648 L137099 -26605 L137101 -26578 L137101 -26565 L137096 -26562 L137088 -26567
								 L137072 -26576 L137041 -26587 L136993 -26600 L136935 -26610 L136873 -26616 L136810 -26621 L136746
								 -26624 L136686 -26624 L136635 -26624 L136590 -26624 L136558 -26624 L136537 -26624 L136524 -26623"/>
				</g>
				<rect x="0" y="121.575" width="26.3635" height="28.9397" class="st3"/>
			</g>
			<g id="shape5835-9" transform="translate(26.6405,-0.888912)">
				<title>工作表.5835</title>
				<rect x="0" y="142.333" width="14.5726" height="8.18233" class="st3"/>
				<g class="st4" transform="matrix(0.0283465,0,0,0.0283465,-3971.11,962.696)">
					<path class="st5" d="M140123 -28830 L140123 -28830 L140125 -28832 L140127 -28835 L140130 -28840 L140135 -28847
								 L140140 -28854 L140145 -28863 L140148 -28866 L140150 -28863 L140150 -28854 L140150 -28837 L140148
								 -28818 L140145 -28799 L140143 -28778 L140140 -28759 L140138 -28742 L140138 -28728 L140138 -28716
								 L140140 -28706 L140143 -28699 L140145 -28692 L140150 -28689 L140153 -28685 L140159 -28684 L140166
								 -28684 L140174 -28685 L140187 -28690 L140204 -28699 L140220 -28711 L140238 -28727 L140258 -28746
								 L140276 -28766 L140294 -28789 L140309 -28811 L140322 -28833 L140332 -28852 L140340 -28870 L140345
								 -28883 L140348 -28895 L140351 -28905 L140351 -28910 L140351 -28910 L140351 -28905 L140351 -28892
								 L140351 -28873 L140350 -28851 L140350 -28827 L140351 -28799 L140355 -28775 L140358 -28754 L140363
								 -28739 L140368 -28727 L140376 -28720 L140386 -28716 L140400 -28715 L140420 -28715 L140445 -28716
								 L140473 -28721 L140499 -28728 L140525 -28737 L140546 -28746 L140563 -28752 L140574 -28756"/>
				</g>
				<rect x="0" y="142.333" width="14.5726" height="8.18233" class="st3"/>
			</g>
		</g>
	</g>
</svg>
